# xmcd CD database file
#
# Track frame offsets:
#	150
#	18730
#	30518
#	45203
#	50930
#	68928
#	77678
#	86243
#	96593
#	120855
#	143045
#	160453
#	179520
#	190418
#
# Disc length: 2784 seconds
#
# Revision: 0
# Processed by: cddbd v1.5PL3 Copyright (c) Steve Scherf et al.
# Submitted via: CDex 1.50beta8a
#
DISCID=c20ade0e
DTITLE=George Winston - DECEMBER
DYEAR=2001
DGENRE=New Age
TTITLE0=Thanksgiving
TTITLE1=Jesus, Jesus, Rest Your Head
TTITLE2=Joy
TTITLE3=Prelude
TTITLE4=Carol of the Bells
TTITLE5=NIGHT Part One: Snow
TTITLE6=NIGHT Part Two: Midnight
TTITLE7=NIGHT Part Three: Minstrels
TTITLE8=Variations on the Kanon by Pachelbel
TTITLE9=The Holly nd lvy
TTITLE10=Some Children See Him
TTITLE11=Peace
TTITLE12=A Christmas Song
TTITLE13=Sleep Baby Mine
EXTD=YEAR: 2001
EXTT0=
EXTT1=
EXTT2=
EXTT3=
EXTT4=
EXTT5=
EXTT6=
EXTT7=
EXTT8=
EXTT9=
EXTT10=
EXTT11=
EXTT12=
EXTT13=
PLAYORDER=
